<svg xmlns="http://www.w3.org/2000/svg" xmlns:xlink="http://www.w3.org/1999/xlink" width="1920" zoomAndPan="magnify" viewBox="0 0 1440 809.999993" height="1080" preserveAspectRatio="xMidYMid meet" version="1.0"><defs><g/></defs><rect x="-144" width="1728" fill="#ffffff" y="-80.999999" height="971.999992" fill-opacity="1"/><rect x="-144" width="1728" fill="#d7057b" y="-80.999999" height="971.999992" fill-opacity="1"/><g fill="#ffffff" fill-opacity="1"><g transform="translate(423.987705, 456.374997)"><g><path d="M 60.171875 2.34375 C 52.992188 2.34375 49.40625 -0.738281 49.40625 -6.90625 C 49.40625 -8.925781 49.703125 -11.242188 50.296875 -13.859375 C 50.898438 -16.484375 51.753906 -19.867188 52.859375 -24.015625 C 54.140625 -28.335938 55.101562 -32.015625 55.75 -35.046875 C 56.394531 -38.085938 56.71875 -40.800781 56.71875 -43.1875 C 56.71875 -49.445312 53.957031 -52.578125 48.4375 -52.578125 C 46.875 -52.578125 45.359375 -52.394531 43.890625 -52.03125 L 32.84375 0 L 12.96875 0 L 32.984375 -93.84375 C 26.816406 -91.257812 22.050781 -87.390625 18.6875 -82.234375 C 15.332031 -77.085938 13.65625 -70.882812 13.65625 -63.625 C 13.65625 -60.21875 13.976562 -57.847656 14.625 -56.515625 C 15.269531 -55.179688 15.59375 -54.421875 15.59375 -54.234375 C 10.625 -54.234375 6.921875 -55.265625 4.484375 -57.328125 C 2.046875 -59.398438 0.828125 -62.832031 0.828125 -67.625 C 0.828125 -73.507812 3.238281 -79.234375 8.0625 -84.796875 C 12.894531 -90.367188 19.082031 -94.878906 26.625 -98.328125 C 34.175781 -101.773438 41.722656 -103.5 49.265625 -103.5 C 50.554688 -103.5 52.394531 -103.40625 54.78125 -103.21875 L 45.8125 -61 L 60.03125 -80.046875 C 71.34375 -95.316406 77.046875 -102.90625 77.140625 -102.8125 L 91.625 -102.8125 L 53.265625 -58.65625 L 58.09375 -58.78125 C 64.351562 -58.78125 68.769531 -57.46875 71.34375 -54.84375 C 73.914062 -52.226562 75.203125 -48.617188 75.203125 -44.015625 C 75.203125 -41.347656 74.878906 -38.519531 74.234375 -35.53125 C 73.597656 -32.539062 72.679688 -28.835938 71.484375 -24.421875 C 70.742188 -21.566406 70.050781 -18.757812 69.40625 -16 C 68.769531 -13.25 68.453125 -10.953125 68.453125 -9.109375 C 68.453125 -6.992188 68.929688 -5.109375 69.890625 -3.453125 C 70.859375 -1.796875 72.171875 -0.644531 73.828125 0 C 68.210938 1.5625 63.660156 2.34375 60.171875 2.34375 Z M 60.171875 2.34375 "/></g></g></g><g fill="#ffffff" fill-opacity="1"><g transform="translate(506.925712, 456.374997)"><g><path d="M 16.5625 0.828125 C 11.3125 0.828125 6.9375 -0.960938 3.4375 -4.546875 C -0.0507812 -8.140625 -1.796875 -13.753906 -1.796875 -21.390625 C -1.796875 -28.203125 -0.441406 -35.351562 2.265625 -42.84375 C 4.984375 -50.34375 9.035156 -56.691406 14.421875 -61.890625 C 19.804688 -67.085938 26.222656 -69.6875 33.671875 -69.6875 C 37.441406 -69.6875 40.242188 -69.039062 42.078125 -67.75 C 43.921875 -66.46875 44.84375 -64.769531 44.84375 -62.65625 L 44.84375 -61.6875 L 46.375 -69 L 66.234375 -69 L 56.296875 -22.078125 C 55.929688 -20.703125 55.75 -19.226562 55.75 -17.65625 C 55.75 -13.707031 57.632812 -11.734375 61.40625 -11.734375 C 63.988281 -11.734375 66.222656 -12.925781 68.109375 -15.3125 C 69.992188 -17.707031 71.488281 -20.835938 72.59375 -24.703125 L 78.390625 -24.703125 C 74.984375 -14.765625 70.769531 -8.023438 65.75 -4.484375 C 60.738281 -0.941406 55.703125 0.828125 50.640625 0.828125 C 46.773438 0.828125 43.671875 -0.25 41.328125 -2.40625 C 38.984375 -4.570312 37.582031 -7.726562 37.125 -11.875 C 34.457031 -8.09375 31.488281 -5.03125 28.21875 -2.6875 C 24.957031 -0.34375 21.070312 0.828125 16.5625 0.828125 Z M 25.53125 -12.5625 C 27.832031 -12.5625 30.109375 -13.640625 32.359375 -15.796875 C 34.609375 -17.960938 36.148438 -20.929688 36.984375 -24.703125 L 43.609375 -55.890625 C 43.609375 -57.085938 43.144531 -58.257812 42.21875 -59.40625 C 41.300781 -60.5625 39.878906 -61.140625 37.953125 -61.140625 C 34.273438 -61.140625 30.960938 -59 28.015625 -54.71875 C 25.066406 -50.4375 22.765625 -45.28125 21.109375 -39.25 C 19.453125 -33.226562 18.625 -27.921875 18.625 -23.328125 C 18.625 -18.722656 19.289062 -15.773438 20.625 -14.484375 C 21.957031 -13.203125 23.59375 -12.5625 25.53125 -12.5625 Z M 25.53125 -12.5625 "/></g></g></g><g fill="#ffffff" fill-opacity="1"><g transform="translate(579.513717, 456.374997)"><g><path d="M 83.90625 0.828125 C 78.289062 0.828125 74.171875 -0.664062 71.546875 -3.65625 C 68.929688 -6.644531 67.625 -10.347656 67.625 -14.765625 C 67.625 -16.691406 67.851562 -18.875 68.3125 -21.3125 C 68.769531 -23.757812 69.25 -26.128906 69.75 -28.421875 C 70.257812 -30.722656 70.609375 -32.195312 70.796875 -32.84375 C 71.523438 -36.0625 72.210938 -39.234375 72.859375 -42.359375 C 73.503906 -45.492188 73.828125 -48.023438 73.828125 -49.953125 C 73.828125 -54.648438 72.171875 -57 68.859375 -57 C 66.472656 -57 64.359375 -55.820312 62.515625 -53.46875 C 60.671875 -51.125 59.195312 -48.066406 58.09375 -44.296875 L 48.71875 0 L 28.84375 0 L 38.921875 -47.609375 C 39.191406 -48.710938 39.328125 -49.863281 39.328125 -51.0625 C 39.328125 -55.101562 37.945312 -57.125 35.1875 -57.125 C 32.613281 -57.125 30.382812 -55.953125 28.5 -53.609375 C 26.613281 -51.265625 25.117188 -48.160156 24.015625 -44.296875 L 14.625 0 L -5.25 0 L 9.390625 -69 L 29.25 -69 L 27.734375 -61.828125 C 32.429688 -67.066406 38.046875 -69.6875 44.578125 -69.6875 C 52.671875 -69.6875 57.40625 -65.734375 58.78125 -57.828125 C 63.84375 -65.640625 70.238281 -69.546875 77.96875 -69.546875 C 82.664062 -69.546875 86.390625 -68.257812 89.140625 -65.6875 C 91.898438 -63.113281 93.28125 -59.203125 93.28125 -53.953125 C 93.28125 -51.285156 92.957031 -48.316406 92.3125 -45.046875 C 91.675781 -41.785156 90.757812 -37.8125 89.5625 -33.125 C 88.820312 -30.269531 88.148438 -27.484375 87.546875 -24.765625 C 86.953125 -22.054688 86.65625 -19.921875 86.65625 -18.359375 C 86.65625 -16.515625 87.066406 -15.085938 87.890625 -14.078125 C 88.722656 -13.066406 90.15625 -12.5625 92.1875 -12.5625 C 94.945312 -12.5625 97.15625 -13.546875 98.8125 -15.515625 C 100.46875 -17.492188 102.125 -20.554688 103.78125 -24.703125 L 109.578125 -24.703125 C 106.171875 -14.578125 102.234375 -7.789062 97.765625 -4.34375 C 93.304688 -0.894531 88.6875 0.828125 83.90625 0.828125 Z M 83.90625 0.828125 "/></g></g><g transform="translate(683.289712, 456.374997)"><g><path d="M 18.359375 0.828125 C 12.097656 0.828125 7.3125 -0.710938 4 -3.796875 C 0.6875 -6.878906 -0.96875 -11.226562 -0.96875 -16.84375 C -0.96875 -19.59375 -0.644531 -22.210938 0 -24.703125 L 14.765625 -93.84375 L 35.1875 -96.59375 L 28.5625 -65.546875 C 31.144531 -67.109375 33.257812 -68.140625 34.90625 -68.640625 C 36.5625 -69.148438 38.21875 -69.40625 39.875 -69.40625 C 50.738281 -69.40625 56.171875 -61.539062 56.171875 -45.8125 C 56.171875 -39.46875 54.953125 -32.679688 52.515625 -25.453125 C 50.078125 -18.234375 46.023438 -12.046875 40.359375 -6.890625 C 34.703125 -1.742188 27.367188 0.828125 18.359375 0.828125 Z M 26.078125 -12.5625 C 28.929688 -12.5625 31.597656 -14.332031 34.078125 -17.875 C 36.566406 -21.414062 38.546875 -25.828125 40.015625 -31.109375 C 41.492188 -36.398438 42.234375 -41.488281 42.234375 -46.375 C 42.234375 -50.050781 41.585938 -53.175781 40.296875 -55.75 C 39.003906 -58.320312 37.207031 -59.609375 34.90625 -59.609375 C 33.53125 -59.609375 31.988281 -59.398438 30.28125 -58.984375 C 28.582031 -58.578125 27.410156 -57.957031 26.765625 -57.125 L 19.1875 -22.078125 C 18.90625 -20.972656 18.765625 -19.914062 18.765625 -18.90625 C 18.765625 -14.675781 21.203125 -12.5625 26.078125 -12.5625 Z M 26.078125 -12.5625 "/></g></g></g><g fill="#ffffff" fill-opacity="1"><g transform="translate(744.561739, 456.374997)"><g><path d="M 23.046875 -76.453125 C 20.003906 -76.453125 17.425781 -77.507812 15.3125 -79.625 C 13.195312 -81.738281 12.140625 -84.316406 12.140625 -87.359375 C 12.140625 -90.390625 13.195312 -92.984375 15.3125 -95.140625 C 17.425781 -97.304688 20.003906 -98.390625 23.046875 -98.390625 C 26.078125 -98.390625 28.675781 -97.304688 30.84375 -95.140625 C 33.007812 -92.984375 34.09375 -90.390625 34.09375 -87.359375 C 34.09375 -84.316406 33.007812 -81.738281 30.84375 -79.625 C 28.675781 -77.507812 26.078125 -76.453125 23.046875 -76.453125 Z M 13.65625 0.828125 C 9.238281 0.828125 5.671875 -0.550781 2.953125 -3.3125 C 0.242188 -6.070312 -1.109375 -10.210938 -1.109375 -15.734375 C -1.109375 -18.035156 -0.738281 -21.023438 0 -24.703125 L 9.390625 -69 L 29.25 -69 L 19.3125 -22.078125 C 18.945312 -20.703125 18.765625 -19.226562 18.765625 -17.65625 C 18.765625 -15.820312 19.203125 -14.515625 20.078125 -13.734375 C 20.953125 -12.953125 22.398438 -12.5625 24.421875 -12.5625 C 27.085938 -12.5625 29.570312 -13.6875 31.875 -15.9375 C 34.175781 -18.1875 35.832031 -21.109375 36.84375 -24.703125 L 42.640625 -24.703125 C 39.234375 -14.765625 34.863281 -8.023438 29.53125 -4.484375 C 24.195312 -0.941406 18.90625 0.828125 13.65625 0.828125 Z M 13.65625 0.828125 "/></g></g></g><g fill="#ffffff" fill-opacity="1"><g transform="translate(781.40773, 456.374997)"><g><path d="M 16.5625 0.828125 C 11.3125 0.828125 6.9375 -0.960938 3.4375 -4.546875 C -0.0507812 -8.140625 -1.796875 -13.753906 -1.796875 -21.390625 C -1.796875 -28.203125 -0.441406 -35.351562 2.265625 -42.84375 C 4.984375 -50.34375 9.035156 -56.691406 14.421875 -61.890625 C 19.804688 -67.085938 26.222656 -69.6875 33.671875 -69.6875 C 37.441406 -69.6875 40.242188 -69.039062 42.078125 -67.75 C 43.921875 -66.46875 44.84375 -64.769531 44.84375 -62.65625 L 44.84375 -61.6875 L 46.375 -69 L 66.234375 -69 L 56.296875 -22.078125 C 55.929688 -20.703125 55.75 -19.226562 55.75 -17.65625 C 55.75 -13.707031 57.632812 -11.734375 61.40625 -11.734375 C 63.988281 -11.734375 66.222656 -12.925781 68.109375 -15.3125 C 69.992188 -17.707031 71.488281 -20.835938 72.59375 -24.703125 L 78.390625 -24.703125 C 74.984375 -14.765625 70.769531 -8.023438 65.75 -4.484375 C 60.738281 -0.941406 55.703125 0.828125 50.640625 0.828125 C 46.773438 0.828125 43.671875 -0.25 41.328125 -2.40625 C 38.984375 -4.570312 37.582031 -7.726562 37.125 -11.875 C 34.457031 -8.09375 31.488281 -5.03125 28.21875 -2.6875 C 24.957031 -0.34375 21.070312 0.828125 16.5625 0.828125 Z M 25.53125 -12.5625 C 27.832031 -12.5625 30.109375 -13.640625 32.359375 -15.796875 C 34.609375 -17.960938 36.148438 -20.929688 36.984375 -24.703125 L 43.609375 -55.890625 C 43.609375 -57.085938 43.144531 -58.257812 42.21875 -59.40625 C 41.300781 -60.5625 39.878906 -61.140625 37.953125 -61.140625 C 34.273438 -61.140625 30.960938 -59 28.015625 -54.71875 C 25.066406 -50.4375 22.765625 -45.28125 21.109375 -39.25 C 19.453125 -33.226562 18.625 -27.921875 18.625 -23.328125 C 18.625 -18.722656 19.289062 -15.773438 20.625 -14.484375 C 21.957031 -13.203125 23.59375 -12.5625 25.53125 -12.5625 Z M 25.53125 -12.5625 "/></g></g><g transform="translate(853.995727, 456.374997)"><g><path d="M 31.734375 -87.765625 L 52.15625 -90.53125 L 42.359375 -44.4375 C 46.773438 -44.800781 50.847656 -46.726562 54.578125 -50.21875 C 58.304688 -53.71875 61.226562 -58.046875 63.34375 -63.203125 C 65.457031 -68.359375 66.515625 -73.421875 66.515625 -78.390625 C 66.515625 -83.898438 65.085938 -88.40625 62.234375 -91.90625 C 59.378906 -95.40625 55.101562 -97.15625 49.40625 -97.15625 C 38.175781 -97.15625 29.410156 -94.207031 23.109375 -88.3125 C 16.804688 -82.425781 13.65625 -74.195312 13.65625 -63.625 C 13.65625 -60.21875 13.976562 -57.847656 14.625 -56.515625 C 15.269531 -55.179688 15.59375 -54.421875 15.59375 -54.234375 C 10.625 -54.234375 6.921875 -55.265625 4.484375 -57.328125 C 2.046875 -59.398438 0.828125 -62.832031 0.828125 -67.625 C 0.828125 -73.507812 3.238281 -79.234375 8.0625 -84.796875 C 12.894531 -90.367188 19.082031 -94.878906 26.625 -98.328125 C 34.175781 -101.773438 41.722656 -103.5 49.265625 -103.5 C 56.535156 -103.5 62.609375 -102.253906 67.484375 -99.765625 C 72.359375 -97.285156 75.96875 -94 78.3125 -89.90625 C 80.65625 -85.8125 81.828125 -81.28125 81.828125 -76.3125 C 81.828125 -70.332031 80.191406 -64.488281 76.921875 -58.78125 C 73.660156 -53.082031 68.992188 -48.414062 62.921875 -44.78125 C 56.847656 -41.144531 49.859375 -39.328125 41.953125 -39.328125 L 41.265625 -39.328125 L 32.84375 0 L 12.96875 0 Z M 31.734375 -87.765625 "/></g></g><g transform="translate(933.069723, 456.374997)"><g><path d="M 19.734375 0.828125 C 12.921875 0.828125 7.628906 -0.941406 3.859375 -4.484375 C 0.0859375 -8.023438 -1.796875 -13.566406 -1.796875 -21.109375 C -1.796875 -27.460938 -0.554688 -34.457031 1.921875 -42.09375 C 4.410156 -49.726562 8.460938 -56.328125 14.078125 -61.890625 C 19.691406 -67.453125 26.820312 -70.234375 35.46875 -70.234375 C 45.582031 -70.234375 50.640625 -65.820312 50.640625 -57 C 50.640625 -51.84375 49.164062 -47.101562 46.21875 -42.78125 C 43.28125 -38.457031 39.375 -34.984375 34.5 -32.359375 C 29.625 -29.734375 24.425781 -28.238281 18.90625 -27.875 C 18.71875 -25.113281 18.625 -23.273438 18.625 -22.359375 C 18.625 -17.847656 19.40625 -14.785156 20.96875 -13.171875 C 22.539062 -11.566406 25.070312 -10.765625 28.5625 -10.765625 C 33.53125 -10.765625 37.785156 -11.910156 41.328125 -14.203125 C 44.867188 -16.503906 48.753906 -20.003906 52.984375 -24.703125 L 57.6875 -24.703125 C 47.46875 -7.679688 34.816406 0.828125 19.734375 0.828125 Z M 20.015625 -34.5 C 23.410156 -34.6875 26.648438 -35.882812 29.734375 -38.09375 C 32.816406 -40.300781 35.300781 -43.101562 37.1875 -46.5 C 39.070312 -49.90625 40.015625 -53.492188 40.015625 -57.265625 C 40.015625 -61.035156 38.863281 -62.921875 36.5625 -62.921875 C 33.257812 -62.921875 30.019531 -60.023438 26.84375 -54.234375 C 23.664062 -48.441406 21.390625 -41.863281 20.015625 -34.5 Z M 20.015625 -34.5 "/></g></g></g><g fill="#ffffff" fill-opacity="1"><g transform="translate(986.065802, 456.374997)"><g/></g></g></svg>