<?xml version="1.0" encoding="utf-8"?>
<!-- Generator: Adobe Illustrator 25.2.1, SVG Export Plug-In . SVG Version: 6.00 Build 0)  -->
<svg version="1.1" id="Capa_1" xmlns="http://www.w3.org/2000/svg" xmlns:xlink="http://www.w3.org/1999/xlink" x="0px" y="0px"
	 viewBox="0 0 500 500" style="enable-background:new 0 0 500 500;" xml:space="preserve">
<style type="text/css">
	.st0{fill:url(#SVGID_1_);}
	.st1{fill:url(#SVGID_2_);}
	.st2{fill:url(#SVGID_3_);}
	.st3{fill:url(#SVGID_4_);}
	.st4{fill:url(#SVGID_5_);}
	.st5{opacity:0.5;fill:url(#SVGID_6_);enable-background:new    ;}
	.st6{opacity:0.5;fill:url(#SVGID_7_);enable-background:new    ;}
	.st7{opacity:0.5;enable-background:new    ;}
	.st8{fill:url(#SVGID_8_);stroke:#000000;stroke-width:5;stroke-miterlimit:10;}
</style>
<g id="BACKGROUND">
	
		<linearGradient id="SVGID_1_" gradientUnits="userSpaceOnUse" x1="115" y1="116.2756" x2="615" y2="616.2756" gradientTransform="matrix(1 0 0 -1 0 501.2756)">
		<stop  offset="0" style="stop-color:#FFFFFF"/>
		<stop  offset="1" style="stop-color:#D0D7DB"/>
	</linearGradient>
	<rect y="0" class="st0" width="500" height="500"/>
</g>
<g id="OBJECTS">
	<g>
		
			<radialGradient id="SVGID_2_" cx="222.1397" cy="328.7232" r="133.7422" gradientTransform="matrix(1 0 0 -1 0 501.2756)" gradientUnits="userSpaceOnUse">
			<stop  offset="9.779999e-02" style="stop-color:#3E003F;stop-opacity:0.6"/>
			<stop  offset="0.4879" style="stop-color:#3F0040;stop-opacity:0.8"/>
			<stop  offset="1" style="stop-color:#3E003F"/>
		</radialGradient>
		<circle class="st1" cx="249.2" cy="245.8" r="148.6"/>
		<g>
			
				<linearGradient id="SVGID_3_" gradientUnits="userSpaceOnUse" x1="33.759" y1="418.6346" x2="297.6515" y2="214.3959" gradientTransform="matrix(1 0 0 -1 0 501.2756)">
				<stop  offset="0" style="stop-color:#B33180"/>
				<stop  offset="1.490000e-02" style="stop-color:#B43383"/>
				<stop  offset="0.4848" style="stop-color:#E16ED1"/>
				<stop  offset="0.5325" style="stop-color:#D467C4"/>
				<stop  offset="0.6203" style="stop-color:#B354A2"/>
				<stop  offset="0.7385" style="stop-color:#7C346B"/>
				<stop  offset="0.8713" style="stop-color:#370D26"/>
			</linearGradient>
			<path class="st2" d="M250,488.6c-63.7,0-123.7-24.8-168.7-69.9S11.4,313.7,11.4,250S36.2,126.3,81.3,81.3s105-69.9,168.7-69.9
				s123.7,24.8,168.7,69.9s69.9,105,69.9,168.7s-24.8,123.7-69.9,168.7S313.7,488.6,250,488.6z M250,40.4
				c-115.6,0-209.6,94-209.6,209.6s94,209.6,209.6,209.6s209.6-94,209.6-209.6S365.6,40.4,250,40.4z"/>
		</g>
		<g>
			
				<linearGradient id="SVGID_4_" gradientUnits="userSpaceOnUse" x1="351.5143" y1="174.4308" x2="165.1411" y2="322.0956" gradientTransform="matrix(1 0 0 -1 0 501.2756)">
				<stop  offset="0" style="stop-color:#B33180"/>
				<stop  offset="1.010000e-02" style="stop-color:#B43383"/>
				<stop  offset="0.3284" style="stop-color:#E16ED1"/>
				<stop  offset="0.4112" style="stop-color:#D467C4"/>
				<stop  offset="0.5638" style="stop-color:#B354A2"/>
				<stop  offset="0.7693" style="stop-color:#7C346B"/>
				<stop  offset="1" style="stop-color:#370D26"/>
			</linearGradient>
			<path class="st3" d="M249.2,415c-45.2,0-87.7-17.6-119.6-49.5S80.1,291,80.1,245.8s17.6-87.7,49.6-119.6s74.4-49.5,119.6-49.5
				s87.7,17.6,119.6,49.6s49.5,74.4,49.5,119.6s-17.6,87.7-49.5,119.6S294.4,415,249.2,415z M249.2,97.2
				c-81.9,0-148.6,66.7-148.6,148.6s66.7,148.6,148.6,148.6s148.6-66.7,148.6-148.6S331.2,97.2,249.2,97.2z"/>
		</g>
		<g>
			<g>
				<radialGradient id="SVGID_5_" cx="212.28" cy="160.7156" r="205.925" gradientUnits="userSpaceOnUse">
					<stop  offset="0" style="stop-color:#FFFFFF"/>
					<stop  offset="1" style="stop-color:#F800AE"/>
				</radialGradient>
				<path class="st4" d="M249.2,21.7C125.4,21.7,25.1,122,25.1,245.8C25.1,369.6,125.5,470,249.2,470
					c123.8,0,224.2-100.4,224.2-224.1C473.4,122,373,21.7,249.2,21.7z M249.2,415c-93.4,0-169.2-75.8-169.2-169.2
					c0-93.4,75.8-169.2,169.2-169.2c93.4,0,169.2,75.8,169.2,169.2C418.4,339.3,342.7,415,249.2,415z"/>
			</g>
		</g>
		
			<radialGradient id="SVGID_6_" cx="167.1828" cy="404.8269" r="284.4416" gradientTransform="matrix(0.9897 0 0 -0.9916 -1.9994 505.428)" gradientUnits="userSpaceOnUse">
			<stop  offset="0" style="stop-color:#B33180;stop-opacity:0"/>
			<stop  offset="1.010000e-02" style="stop-color:#B43383;stop-opacity:0"/>
			<stop  offset="0.3284" style="stop-color:#E16ED1;stop-opacity:0"/>
			<stop  offset="0.3724" style="stop-color:#D467C4;stop-opacity:6.550000e-02"/>
			<stop  offset="0.6787" style="stop-color:#803770;stop-opacity:0.5216"/>
			<stop  offset="0.895" style="stop-color:#4B193B;stop-opacity:0.8437"/>
			<stop  offset="1" style="stop-color:#370D26"/>
		</radialGradient>
		<ellipse class="st5" cx="250" cy="245.9" rx="148.4" ry="148.6"/>
		
			<radialGradient id="SVGID_7_" cx="293.0052" cy="467.303" r="354.0128" gradientTransform="matrix(1.0091 0 0 -1.0025 2.4237 499.4134)" gradientUnits="userSpaceOnUse">
			<stop  offset="0" style="stop-color:#B33180;stop-opacity:0"/>
			<stop  offset="1.010000e-02" style="stop-color:#B43383;stop-opacity:0"/>
			<stop  offset="0.3284" style="stop-color:#E16ED1;stop-opacity:0"/>
			<stop  offset="0.3724" style="stop-color:#D467C4;stop-opacity:6.550000e-02"/>
			<stop  offset="0.6787" style="stop-color:#803770;stop-opacity:0.5216"/>
			<stop  offset="0.895" style="stop-color:#4B193B;stop-opacity:0.8437"/>
			<stop  offset="1" style="stop-color:#370D26"/>
		</radialGradient>
		<path class="st6" d="M473.4,244.6c0,118.6-87.9,215.6-199.1,223.3c105.3-15.2,186.4-109,186.4-222.5
			c0-121.4-92.7-220.2-208.7-224.5c2.6-0.1,5.3-0.1,8-0.1C377.8,20.7,473.4,120.9,473.4,244.6z"/>
		<path class="st7" d="M173.2,146.3c-0.4,6.6-0.3,81.8-0.3,86.5c0.1,7.7,0.1,15.3,0.2,23c0,8.9,0,17.8,0,26.6c0,9,0,17.9,0,26.9
			c0,7.9,0,15.8,0.1,23.7c0,6.4-0.2,11.6,0,18c0.1,1.9,0.7,5.1,1.9,6.6c2.4,3.1,7.4,4,11.1,4.7c3.9,0.8,7.9,1.2,11.9,1.4
			c7.4,0.5,14.9,0.6,22.3,0c1.1-0.1,2.3-0.2,3.4-0.5c3.9-0.8,6.9-1.6,8.5-6.1c1.3-3.8,0.8-10.1,1.6-25.3c1.7-33.2,1.6-38.5,1.8-41.4
			c0.1-1,0.1-2,0.2-3.1c0-0.1,0-0.3,0.1-0.4c0.1-0.2,0.4-0.2,0.6-0.1c1.7,0.3,2.7,1.9,3.5,3.2c1.1,1.7,2.2,3.3,3.4,4.9
			c0.5,0.6,0.9,1.2,1.4,1.9c0.6,0.8,1.1,1.5,1.7,2.3c0.7,0.9,1.4,1.8,2.1,2.7c0.8,1,1.6,2.1,2.3,3.1c0.9,1.1,1.7,2.3,2.6,3.4
			c0.9,1.2,1.8,2.4,2.8,3.6c1,1.3,2,2.6,2.9,3.8c1,1.3,2,2.7,3,4c1,1.4,2.1,2.7,3.1,4.1c1,1.4,2.1,2.7,3.2,4.1
			c1.1,1.4,2.1,2.7,3.2,4.1c1,1.3,2.1,2.7,3.1,4c1,1.3,2,2.6,3.1,3.9c1,1.2,2,2.5,3,3.7c0.9,1.2,1.9,2.3,2.8,3.5
			c0.9,1.1,1.7,2.1,2.6,3.2c0.8,1,1.6,1.9,2.4,2.8c0.7,0.8,1.4,1.6,2.1,2.4c0.6,0.7,1.2,1.3,1.8,2c0.5,0.5,1,1,1.5,1.5
			c0.3,0.3,0.6,0.7,1,0.9c5.6,4.2,17,1.4,22.1,1.2s21.6-3.4,28-5.7c3.3-1.2,6.3-2.9,7.5-6.4c0.6-1.7,0.6-3.6,0.2-5.4
			c-0.5-1.9-6.2-8.6-7.9-10.6c-2.3-2.8-54.1-65.3-54.1-65.3c0.7-0.9,22.1-26.1,25.4-29.8c3.5-3.9,24.4-27.3,27.3-30.7
			c2.3-2.6,10.6-11.5,12.7-13.9c2.4-2.7,1.8-8.1-0.8-10.7c-2.7-2.8-6.8-3.4-10.5-3.7c0,0,0,0-0.1,0c-1.8-0.1-3.6-0.2-5.4-0.3
			c-2.2-0.1-4.5-0.2-6.7-0.4c-2.5-0.1-4.9-0.2-7.4-0.4c-2.4-0.1-4.9-0.2-7.3-0.3c-2.2-0.1-13.5-0.6-14.5-0.6c-0.1,0-0.3,0-0.4,0
			c-3.8-0.1-7.5,2-10.2,4.5c-0.3,0.3-0.6,0.6-0.9,0.9c-0.8,0.8-1.6,1.7-2.4,2.6c-1,1.1-2.1,2.3-3.1,3.5c-1.2,1.4-2.5,2.8-3.7,4.2
			c-1.4,1.6-2.8,3.2-4.2,4.8c-1.5,1.8-3,3.5-4.5,5.2c-1.6,1.8-3.2,3.7-4.8,5.5c-1.6,1.9-3.2,3.8-4.9,5.7c-1.6,1.9-3.2,3.8-4.8,5.6
			c-1.5,1.8-3.1,3.6-4.7,5.5c-1.5,1.7-2.9,3.4-4.4,5.1c-1.3,1.6-2.6,3.1-3.9,4.6c-1.1,1.3-2.3,2.7-3.4,4c-0.9,1.1-1.8,2.1-2.7,3.2
			c-0.6,0.8-1.3,1.5-1.9,2.2c-0.3,0.4-0.6,0.8-1,1.1c0,0-0.1,0.1-0.1,0.1c-1.7,1.6-1.5-2.4-1.5-2.4c0.1-1.4,3-72.8,3.1-75
			c0.1-2.2,0.9-16.7,1-18.6c0.1-1.7,0.1-5.7,0.2-7.4c0-3.9,0.1-6.4-0.3-10.3c-0.1-1.2-0.7-3.6-2-5.3c-3.9-5.5-15.2-3.6-20.7-3.2
			c-8.2,0.6-16.2,1.9-24.2,3.8c-6.2,1.5-13.5,3.5-17.4,9C173.7,139,173.2,142.6,173.2,146.3z"/>
		
			<radialGradient id="SVGID_8_" cx="258.5002" cy="235.8967" r="174.8517" fx="402.4144" fy="209.5076" gradientUnits="userSpaceOnUse">
			<stop  offset="0" style="stop-color:#F97DDF"/>
			<stop  offset="4.142347e-02" style="stop-color:#F965D6"/>
			<stop  offset="0.108" style="stop-color:#F946CA"/>
			<stop  offset="0.1809" style="stop-color:#F82DBF"/>
			<stop  offset="0.2612" style="stop-color:#F819B8"/>
			<stop  offset="0.3529" style="stop-color:#F80BB2"/>
			<stop  offset="0.4657" style="stop-color:#F802AF"/>
			<stop  offset="0.6622" style="stop-color:#F800AE"/>
		</radialGradient>
		<path class="st8" d="M166.4,138.8c-0.4,6.6-0.3,81.8-0.3,86.5c0.1,7.7,0.1,15.3,0.2,23c0,8.9,0,17.8,0,26.6c0,9,0,17.9,0,26.9
			c0,7.9,0,15.8,0.1,23.7c0,6.4-0.2,11.6,0,18c0.1,1.9,0.7,5.1,1.9,6.6c2.4,3.1,7.4,4,11.1,4.7c3.9,0.8,7.9,1.2,11.9,1.4
			c7.4,0.5,14.9,0.6,22.3,0c1.1-0.1,2.3-0.2,3.4-0.5c3.9-0.8,6.9-1.6,8.5-6.1c1.3-3.8,0.8-10.1,1.6-25.3c1.7-33.2,1.6-38.5,1.8-41.4
			c0.1-1,0.1-2,0.2-3.1c0-0.1,0-0.3,0.1-0.4c0.1-0.2,0.4-0.2,0.6-0.1c1.7,0.3,2.7,1.9,3.5,3.2c1.1,1.7,2.2,3.3,3.4,4.9
			c0.5,0.6,0.9,1.2,1.4,1.9c0.6,0.8,1.1,1.5,1.7,2.3c0.7,0.9,1.4,1.8,2.1,2.7c0.8,1,1.6,2.1,2.3,3.1c0.9,1.1,1.7,2.3,2.6,3.4
			c0.9,1.2,1.8,2.4,2.8,3.6c1,1.3,1.9,2.6,2.9,3.8c1,1.3,2,2.7,3,4c1,1.4,2.1,2.7,3.1,4.1c1,1.4,2.1,2.7,3.2,4.1
			c1.1,1.4,2.1,2.7,3.2,4.1c1,1.3,2.1,2.7,3.1,4c1,1.3,2,2.6,3.1,3.9c1,1.2,2,2.5,3,3.7c0.9,1.2,1.9,2.3,2.8,3.5
			c0.9,1.1,1.7,2.1,2.6,3.2c0.8,1,1.6,1.9,2.4,2.8c0.7,0.8,1.4,1.6,2.1,2.4c0.6,0.7,1.2,1.3,1.8,2c0.5,0.5,1,1,1.5,1.5
			c0.3,0.3,0.6,0.7,1,0.9c5.6,4.2,17,1.4,22.1,1.2c5-0.2,21.6-3.4,28-5.7c3.3-1.2,6.3-2.9,7.5-6.4c0.6-1.7,0.6-3.6,0.2-5.4
			c-0.5-1.9-6.2-8.6-7.9-10.6c-2.3-2.8-54.1-65.3-54.1-65.3c0.7-0.9,22.1-26.1,25.4-29.8c3.5-3.9,24.4-27.3,27.3-30.7
			c2.3-2.6,10.6-11.5,12.7-13.9c2.4-2.7,1.8-8.1-0.8-10.7c-2.7-2.8-6.8-3.4-10.5-3.7c0,0,0,0-0.1,0c-1.8-0.1-3.6-0.2-5.4-0.3
			c-2.2-0.1-4.5-0.2-6.7-0.4c-2.5-0.1-4.9-0.2-7.4-0.4c-2.4-0.1-4.9-0.2-7.3-0.3c-2.2-0.1-13.5-0.6-14.5-0.6c-0.1,0-0.3,0-0.4,0
			c-3.8-0.1-7.5,2-10.2,4.5c-0.3,0.3-0.6,0.6-0.9,0.9c-0.8,0.8-1.6,1.7-2.4,2.6c-1,1.1-2.1,2.3-3.1,3.5c-1.2,1.4-2.5,2.8-3.7,4.2
			c-1.4,1.6-2.8,3.2-4.2,4.8c-1.5,1.8-3,3.5-4.5,5.2c-1.6,1.8-3.2,3.7-4.8,5.5c-1.6,1.9-3.2,3.8-4.9,5.7c-1.6,1.9-3.2,3.8-4.8,5.6
			c-1.6,1.8-3.1,3.6-4.7,5.5c-1.5,1.7-2.9,3.4-4.4,5.1c-1.3,1.6-2.6,3.1-3.9,4.6c-1.1,1.3-2.3,2.7-3.4,4c-0.9,1.1-1.8,2.1-2.7,3.2
			c-0.6,0.8-1.3,1.5-1.9,2.2c-0.3,0.4-0.6,0.8-1,1.1c0,0-0.1,0.1-0.1,0.1c-1.7,1.6-1.5-2.4-1.5-2.4c0.1-1.4,3-72.8,3.1-75
			c0.1-2.2,0.9-16.7,1-18.6c0.1-1.7,0.1-5.7,0.2-7.4c0-3.9,0.1-6.4-0.3-10.3c-0.1-1.2-0.7-3.6-2-5.3c-3.9-5.5-15.2-3.6-20.7-3.2
			c-8.2,0.6-16.2,1.9-24.2,3.8c-6.2,1.5-13.5,3.5-17.4,9C166.9,131.5,166.4,135.1,166.4,138.8z"/>
	</g>
</g>
<g id="DESIGNED_BY_FREEPIK">
</g>
</svg>
